<?xml version="1.0" standalone="no"?>
<!DOCTYPE svg PUBLIC "-//W3C//DTD SVG 20010904//EN"
 "http://www.w3.org/TR/2001/REC-SVG-20010904/DTD/svg10.dtd">
<svg version="1.0" xmlns="http://www.w3.org/2000/svg"
 width="500.000000pt" height="500.000000pt" viewBox="0 0 500.000000 500.000000"
 preserveAspectRatio="xMidYMid meet">
<metadata>
Created by potrace 1.14, written by Peter Selinger 2001-2017
</metadata>
<g transform="translate(0.000000,500.000000) scale(0.100000,-0.100000)"
fill="#000000" stroke="none">
<path d="M2360 3880 c-225 -22 -443 -101 -631 -228 -314 -211 -522 -534 -590
-912 -22 -124 -17 -375 10 -499 122 -559 548 -973 1106 -1077 93 -17 321 -23
405 -11 117 18 135 22 240 54 113 35 235 92 336 158 101 66 125 85 239 200
413 414 508 1067 230 1590 -67 128 -130 210 -245 325 -164 164 -315 260 -526
333 -170 59 -388 84 -574 67z m220 -729 l0 -608 583 1 c320 1 592 -1 605 -3
19 -3 22 -9 22 -52 l0 -49 -47 0 c-27 0 -299 -1 -605 -1 l-558 0 -1 -432 c0
-238 0 -507 0 -598 1 -185 4 -178 -70 -175 l-34 1 -3 602 -2 602 -596 0 c-328
0 -599 3 -602 6 -4 3 -7 26 -8 49 -2 41 0 44 24 47 15 2 287 4 605 3 l577 -1
0 608 c0 679 -7 618 72 611 l38 -4 0 -607z"/>
</g>
</svg>
